<?xml version="1.0" encoding="UTF-8"?> <svg xmlns="http://www.w3.org/2000/svg" id="horizontal_color" data-name="horizontal color" viewBox="0 0 598.22 157.14"><defs><style>.cls-1{fill:#fff;}</style></defs><title>white-logo</title><path class="cls-1" d="M176.35,361.1l12.74-72.91-43.94-.11L133.23,356C143.26,360.46,158.36,362.5,176.35,361.1Z" transform="translate(-100.26 -222)"></path><path class="cls-1" d="M184.26,361.1a234,234,0,0,0,37.09-7.74c3-.85,5.85-1.76,8.71-2.7l15.59-87.91-43.93-.1Z" transform="translate(-100.26 -222)"></path><polygon class="cls-1" points="101.58 39.98 101.46 40.65 145.4 40.75 145.52 40.09 101.58 39.98"></polygon><path class="cls-1" d="M259.73,222,237.32,348.65a207.64,207.64,0,0,0,48.85-25.6L304.11,222Z" transform="translate(-100.26 -222)"></path><path class="cls-1" d="M371.13,347.11H351.44L346.5,359a7.77,7.77,0,0,1-1.19,1.71,3.44,3.44,0,0,1-2.32.56H327.94c-.62,0-1-.19-1.13-.56a2,2,0,0,1,.1-1.4l28.66-63.81c1.24-2.74,2.55-4.51,4-5.3A11,11,0,0,1,365,289h8.14a25.87,25.87,0,0,1,3.1.16,5.4,5.4,0,0,1,2.31.77,4.79,4.79,0,0,1,1.65,1.9,11,11,0,0,1,1,3.56l10.72,63.91a2.61,2.61,0,0,1-.1,1.24c-.14.48-.59.72-1.34.72H375.56a5,5,0,0,1-1.9-.31,1.69,1.69,0,0,1-1-1.44Zm-13.3-15.25h11.34l-.72-8.05L367.32,309h-.83l-5.56,15.15Z" transform="translate(-100.26 -222)"></path><path class="cls-1" d="M399.69,361.23q-4.23,0-5.16-1.6c-.62-1.06-.75-2.79-.41-5.2l8.25-58.55a10.74,10.74,0,0,1,1.85-5.1q1.33-1.71,5.57-1.71h18.35a33.15,33.15,0,0,1,13.55,2.43,22.89,22.89,0,0,1,8.66,6.44,23.48,23.48,0,0,1,4.53,9.28,46.09,46.09,0,0,1,1.29,11,69.14,69.14,0,0,1-.67,9.43,51.34,51.34,0,0,1-2.32,9.69,45.07,45.07,0,0,1-4.33,9.12,30,30,0,0,1-6.69,7.58,32,32,0,0,1-9.59,5.2,38.34,38.34,0,0,1-12.78,2Zm20-55.46-5.36,38.56h4.43a15.71,15.71,0,0,0,14.08-7.48,23.65,23.65,0,0,0,3-7.68,42.49,42.49,0,0,0,.92-9,26.35,26.35,0,0,0-.61-5.88,11.57,11.57,0,0,0-2.12-4.59,9.66,9.66,0,0,0-4-2.94,16.64,16.64,0,0,0-6.29-1Z" transform="translate(-100.26 -222)"></path><path class="cls-1" d="M469.62,360.87a3.14,3.14,0,0,1-1.8.36h-7.63a3.15,3.15,0,0,1-1.8-.41c-.38-.27-.5-.86-.36-1.75l9.59-67.83a2.44,2.44,0,0,1,.82-1.75,3.32,3.32,0,0,1,1.86-.42h7.62a2.91,2.91,0,0,1,1.76.37c.27.24.34.84.2,1.8l-9.58,67.83A2.9,2.9,0,0,1,469.62,360.87Z" transform="translate(-100.26 -222)"></path><path class="cls-1" d="M491.73,359.07a2.62,2.62,0,0,1-.72,1.8,3.41,3.41,0,0,1-1.85.36h-7.83a3,3,0,0,1-1.71-.41c-.38-.27-.5-.86-.36-1.75l9.17-64.33a8.07,8.07,0,0,1,1.76-4.43c.89-1,2.4-1.44,4.54-1.44h23.5q9.38,0,14.43,4.95t5.05,13.09q0,7.83-3.87,12.83a22.91,22.91,0,0,1-9.84,7.37v.41q3.91,1.25,5.36,3.87a18.33,18.33,0,0,1,2,6.34l2.57,21.34a3.35,3.35,0,0,1-.1,1.44q-.21.72-1.44.72h-8.86a5,5,0,0,1-1.55-.26,1.58,1.58,0,0,1-1-1.39l-2.17-19.07q-.62-5.46-3.5-7.42a13.83,13.83,0,0,0-7.83-2H495.65Zm5.47-38.45H512a15.63,15.63,0,0,0,5.77-1,11.16,11.16,0,0,0,4.08-2.68,11.85,11.85,0,0,0,2.42-3.87,12.9,12.9,0,0,0,.82-4.64,10.6,10.6,0,0,0-.41-2.88,6.49,6.49,0,0,0-1.49-2.63,8.27,8.27,0,0,0-2.94-2,12.56,12.56,0,0,0-4.74-.77H500.08Z" transform="translate(-100.26 -222)"></path><path class="cls-1" d="M645,290.45c-.18-.28-.64-1.45-1.39-1.45H561.86a20.75,20.75,0,0,0-8.56,1.53,15,15,0,0,0-5.51,4.12,17.9,17.9,0,0,0-3.19,5.92,52.67,52.67,0,0,0-1.6,8l-5,35.25a28.88,28.88,0,0,0-.21,6.91,13,13,0,0,0,2,5.87c1.1,1.72,2.73,2.48,4.9,3.51s5.06.93,8.7.93h29a2.29,2.29,0,0,0,1.81-1,2.88,2.88,0,0,0,.66-1.46l.83-5.29a5.55,5.55,0,0,0-.05-2.35,1.87,1.87,0,0,0-1.7-.89H556.09c-2.41,0-4.07-.12-5-1.25s-1.26-1.68-1-3.87L552.28,331h30.2c.82,0,1.37-1.06,1.65-1.44a7.1,7.1,0,0,0,.61-2.24l.83-5.89c.14-1,.12-.1-.05-.44a1.83,1.83,0,0,0-1.6-1h-30.2l1.54-11.46c.35-2.2,1.09-5.25,2.22-6.42A7.64,7.64,0,0,1,563.1,300h47.52l-8.35,58.07c-.14.89,0,1.86.36,2.13a3,3,0,0,0,1.8.8h7.74a3.1,3.1,0,0,0,1.85-.75c.34-.23.58-.53.72-1.49L623.09,300h19a2,2,0,0,0,1.49-.41c.24-.28.43.24.57-.45l.93-7.13A2.51,2.51,0,0,0,645,290.45Z" transform="translate(-100.26 -222)"></path><path class="cls-1" d="M295.46,309.05,295,314.9l8.67.71A100.75,100.75,0,0,1,287.06,330c-12.93,9.11-29.73,17.71-48.74,24.59-2.74,1-5.52,1.95-8.35,2.86v0c-2.56.83-5.14,1.6-7.77,2.37a237.4,237.4,0,0,1-38.4,8l-.73,4.17H183l.78-4.32c-2.71.32-5.36.6-8,.78l0,.24c-18.24,1.31-33.46-.57-43.39-5.27L130.92,372h-.06l1.54-8.72c-7.12-3.37-11.53-8.22-12.34-14.48-1.09-8.3,4.33-17.85,14.39-27.36l.28-1.74c.36-2.11.73-4.21,1.11-6.33.29-1.62.59-3.24.89-4.87-23.86,15.68-38.17,32.95-36.31,47.13,3,23.29,48.48,30,104.46,16.84l15.08-3.8c2.88-.84,5.7-1.79,8.5-2.69l0-.08q4.22-1.35,8.32-2.8a264.66,264.66,0,0,0,48.36-22.52,156,156,0,0,0,23.46-17.13l-.56,6.78,5.86.48,1.62-20Z" transform="translate(-100.26 -222)"></path><path class="cls-1" d="M312.27,292.39c.58,4.45-.72,9.26-3.58,14.23l9,.73-.42,5.23c6.31-8.05,9.41-15.9,8.48-23-1.32-10.14-10.7-17.12-25.44-20.71-.4,2.27-1.09,5.53-1.69,8.43C306.49,280.7,311.4,285.76,312.27,292.39Z" transform="translate(-100.26 -222)"></path><path class="cls-1" d="M672.13,288.94c8.71,0,14.28,1.51,18.71,6.52a30.72,30.72,0,0,1,7.63,20.73,66.46,66.46,0,0,1-2.36,18,44.9,44.9,0,0,1-7,14.69c-3,4.16-7.81,7.44-12.27,9.85s-8.57,2.61-14.33,2.61c-8.65,0-14.16-1.37-18.55-6.12s-7.59-11.58-7.59-20.51a64.14,64.14,0,0,1,2.78-19.69,46,46,0,0,1,7.56-14.69c3.19-4,8-7.09,12.32-9.22S667.12,288.94,672.13,288.94Zm-.87,10.34a16.8,16.8,0,0,0-9.94,2.94,23.77,23.77,0,0,0-7,7.73,37.22,37.22,0,0,0-4.13,11,59.91,59.91,0,0,0-1.34,12.68,31.08,31.08,0,0,0,.78,7.26,14.18,14.18,0,0,0,2.52,5.52,11.09,11.09,0,0,0,4.59,3.45,18.06,18.06,0,0,0,7,1.19,17.48,17.48,0,0,0,10.15-2.94,23.48,23.48,0,0,0,7.06-7.78,39.63,39.63,0,0,0,4.18-11,57.67,57.67,0,0,0,1.39-12.58,29.13,29.13,0,0,0-.78-6.91,14.31,14.31,0,0,0-2.57-5.51,12.5,12.5,0,0,0-4.69-3.66A17.21,17.21,0,0,0,671.26,299.28Z" transform="translate(-100.26 -222)"></path></svg> 